<svg width="375" height="812" viewBox="0 0 375 812" fill="none" xmlns="http://www.w3.org/2000/svg">
<g opacity="0.05">
<path d="M-10.026 -19L93.6151 76.291H145.436L222.087 -19L291.181 25.7753L394.822 -4.07491L384.026 161.249H453.12L473.632 268.021L426.13 386.274L522.214 429.901L560 731.847H355.957L328.967 805.324H179.983L110.889 753.66L-47.8119 830.582L-99.6324 775.474V631.964L-151.453 555.042L-99.6324 429.901V304.76L-186 268.021V76.291L-10.026 -19Z" stroke="#1EBAE2" stroke-width="2"/>
<path d="M148.008 370.531L166.751 360.334H191.473L208.721 379.622L213.205 403.703L223.439 408.371L227.463 440.683H205.731L179.629 443.017L162.726 451.248L157.207 445.351V429.994V394.98L148.008 391.048V370.531Z" stroke="#1EBAE2" stroke-width="2"/>
<path d="M2.85126 10.1792L99.2408 97.7479H148.977L220.395 10.5289L284.838 52.6018L380.679 25.9739L370.886 179.507L435.452 179.866L454.542 279.667L410.848 390.066L498.705 430.338L532.749 709.057L343.397 709.147L317.479 777.062L178.655 777.695L114.664 729.779L-32.0412 800.556L-79.8756 749.097V616.035L-127.71 542.337L-80.2294 426.671L-80.5832 311.005L-160.307 276.303V98.5323L2.85126 10.1792Z" stroke="#1EBAE2" stroke-width="2"/>
<path d="M15.7285 39.3594L104.867 119.206H152.518L218.704 40.0587L278.495 79.4292L366.536 56.0237L357.746 197.766L417.784 198.484L435.451 291.315L395.566 393.86L475.196 430.776L505.497 686.268L330.837 686.448L305.992 748.801L177.328 750.067L118.439 705.898L-16.2706 770.532L-60.1188 722.721V600.107L-103.967 529.633L-60.8264 423.442L-61.534 317.251L-134.614 284.586V120.775L15.7285 39.3594Z" stroke="#1EBAE2" stroke-width="2"/>
<path d="M28.6058 68.5386L110.492 140.663H156.059L217.012 69.5876L272.152 106.256L352.393 86.0725L344.606 216.023L400.117 217.101L416.36 302.961L380.284 397.653L451.687 431.212L478.245 663.479L318.277 663.748L294.504 720.538L176 722.438L122.214 682.016L-0.499992 740.506L-40.362 696.343V584.179L-80.2239 516.928L-41.4234 420.212L-42.4848 323.496L-108.921 292.868V143.016L28.6058 68.5386Z" stroke="#1EBAE2" stroke-width="2"/>
<path d="M41.4831 97.7178L116.118 162.12H159.601L215.32 99.1165L265.808 133.082L338.25 116.121L331.466 234.281L382.449 235.718L397.269 314.608L365.002 401.446L428.178 431.649L450.994 640.689L305.717 641.048L283.017 692.276L174.673 694.809L125.989 658.134L15.2706 710.48L-20.6051 669.966V568.25L-56.4809 504.223L-22.0204 416.982L-23.4356 329.741L-83.2285 301.15V165.257L41.4831 97.7178Z" stroke="#1EBAE2" stroke-width="2"/>
<path d="M54.3609 126.898L121.744 183.578H163.142L213.629 128.646L259.466 159.91L324.107 146.171L318.326 252.54L364.781 254.335L378.178 326.255L349.72 405.24L404.669 432.087L423.743 617.9L293.158 618.349L271.529 664.015L173.346 667.181L129.765 634.253L31.0417 680.456L-0.847832 643.59V552.322L-32.7374 491.519L-2.61685 413.753L-4.38588 335.987L-57.5352 309.433V187.5L54.3609 126.898Z" stroke="#1EBAE2" stroke-width="2"/>
<path d="M67.2382 156.077L127.37 205.034H166.684L211.938 158.175L253.123 186.736L309.964 176.22L305.186 270.798L347.114 272.952L359.088 337.901L334.438 409.032L381.16 432.524L396.492 595.11L280.598 595.649L260.042 635.752L172.018 639.551L133.54 610.372L46.8124 650.43L18.909 617.213V536.394L-8.99438 478.814L16.7862 410.523L14.6633 342.232L-31.8423 317.715V209.741L67.2382 156.077Z" stroke="#1EBAE2" stroke-width="2"/>
<path d="M80.1155 185.257L132.996 226.492H170.225L210.246 187.704L246.779 213.563L295.821 206.269L292.046 289.056L329.446 291.569L339.997 349.548L319.156 412.825L357.651 432.961L369.24 572.321L268.039 572.949L248.554 607.49L170.691 611.923L137.315 586.49L62.583 620.405L38.6658 590.836V520.465L14.7486 466.109L36.1892 407.293L33.7125 348.477L-6.14941 325.997V231.982L80.1155 185.257Z" stroke="#1EBAE2" stroke-width="2"/>
<path d="M92.9923 214.436L138.621 247.949H173.766L208.554 217.233L240.436 240.389L281.678 236.318L278.905 307.313L311.778 310.186L320.905 361.194L303.873 416.618L334.142 433.398L341.988 549.531L255.478 550.249L237.066 579.228L169.363 584.293L141.09 562.608L78.3531 590.379L58.4221 564.458V504.537L38.4912 453.404L55.5917 404.063L52.7613 354.722L19.543 334.279V254.224L92.9923 214.436Z" stroke="#1EBAE2" stroke-width="2"/>
<path d="M105.87 243.616L144.247 269.406H177.308L206.863 246.763L234.093 267.217L267.535 266.367L265.766 325.572L294.11 328.804L301.815 372.841L288.592 420.412L310.633 433.835L314.737 526.742L242.919 527.55L225.579 550.966L168.036 556.665L144.866 538.727L94.1242 560.354L78.1794 538.082V488.609L62.2347 440.7L74.9952 400.834L71.811 360.968L45.2363 342.562V276.466L105.87 243.616Z" stroke="#1EBAE2" stroke-width="2"/>
<path d="M118.747 272.795L149.873 290.863H180.849L205.171 276.292L227.75 294.043L253.392 296.416L252.625 343.83L276.442 347.421L282.724 384.488L273.31 424.205L287.124 434.273L287.485 503.952L230.359 504.85L214.092 522.704L166.708 529.036L148.641 514.846L109.895 530.329L97.9363 511.705V472.68L85.9777 427.995L94.3982 397.604L90.8602 367.213L70.9292 350.844V298.707L118.747 272.795Z" stroke="#1EBAE2" stroke-width="2"/>
<path d="M131.625 301.974L155.499 312.32H184.39L203.48 305.821L221.407 320.87L239.249 326.465L239.485 362.087L258.775 366.038L263.633 396.135L258.028 427.998L263.615 434.709L260.234 481.163L217.8 482.15L202.604 494.442L165.381 501.407L152.416 490.964L125.665 500.303L117.693 485.328V456.752L109.721 415.29L113.801 394.374L109.909 373.458L96.6221 359.126V320.949L131.625 301.974Z" stroke="#1EBAE2" stroke-width="2"/>
<path d="M144.502 331.154L161.125 333.778H187.931L201.788 335.35L215.064 347.697L225.106 356.515L226.345 380.346L241.107 384.655L244.542 407.782L242.746 431.791L240.106 435.147L232.982 458.374L205.24 459.451L191.117 466.18L164.054 473.779L156.191 467.083L141.436 470.278L137.45 458.951V440.824L133.464 402.586L133.204 391.145L128.959 379.704L122.315 367.409V343.191L144.502 331.154Z" stroke="#1EBAE2" stroke-width="2"/>
</g>
</svg>
