<svg width="88" height="101" viewBox="0 0 88 101" fill="none" xmlns="http://www.w3.org/2000/svg">
<circle cx="44.0001" cy="37.6857" r="35.9368" fill="black" stroke="black" stroke-width="3.49777"/>
<path d="M24.7904 15.6835C27.4758 5.75435 37.9823 3.36609 42.8999 3.4131C47.2551 1.29188 56.6747 4.67305 60.8401 6.6288C71.717 10.2168 77.7648 26.4965 79.429 34.1879C83.1976 38.7462 75.0192 54.2342 70.4589 61.4084C71.4744 53.0589 66.0867 47.0412 63.2659 45.0761C58.9106 41.5557 46.9148 38.4943 41.4613 37.4036C35.9551 36.3881 32.1151 33.934 30.8833 32.8339C23.1882 26.8087 23.6151 18.8898 24.7904 15.6835Z" fill="#1DB8DF"/>
<path d="M22.0261 36.9805C15.6229 30.2388 16.9675 19.1907 18.7822 14.3296L12.8303 18.6736C6.69232 26.5267 8.52395 42.293 10.207 49.1945C11.5159 59.7104 25.8342 68.6015 32.8297 71.7325L34.6914 70.8017C41.2074 58.5877 32.8109 48.1132 28.2882 43.835L22.0261 36.9805Z" fill="#C1D649"/>
<circle cx="44.0001" cy="37.6857" r="35.9368" stroke="black" stroke-width="3.49777"/>
<circle cx="49.0776" cy="26.0077" r="9.08292" fill="black"/>
<path d="M1.35229 95.7563V83.4475H8.98524V85.0462H3.20944V88.7965H8.43831V90.3892H3.20944V95.7563H1.35229ZM10.264 95.7563H8.29268L12.7222 83.4475H14.8678L19.2973 95.7563H17.326L13.8461 85.6833H13.7499L10.264 95.7563ZM10.5946 90.9362H16.9894V92.4988H10.5946V90.9362ZM22.4243 83.4475V95.7563H20.5671V83.4475H22.4243ZM24.6211 95.7563V83.4475H29.0086C29.9622 83.4475 30.7535 83.6118 31.3826 83.9403C32.0157 84.2689 32.4885 84.7236 32.801 85.3046C33.1135 85.8816 33.2698 86.5487 33.2698 87.306C33.2698 88.0593 33.1115 88.7224 32.795 89.2954C32.4824 89.8644 32.0096 90.3071 31.3766 90.6236C30.7475 90.9402 29.9562 91.0984 29.0025 91.0984H25.6789V89.4997H28.8343C29.4353 89.4997 29.9241 89.4136 30.3007 89.2413C30.6814 89.069 30.9599 88.8186 31.1362 88.49C31.3125 88.1615 31.4006 87.7668 31.4006 87.306C31.4006 86.8412 31.3105 86.4385 31.1302 86.098C30.9539 85.7574 30.6754 85.4969 30.2947 85.3166C29.9181 85.1323 29.4233 85.0402 28.8102 85.0402H26.4783V95.7563H24.6211ZM30.6974 90.2029L33.7386 95.7563H31.623L28.6419 90.2029H30.6974ZM34.4148 85.0462V83.4475H43.941V85.0462H40.1005V95.7563H38.2493V85.0462H34.4148ZM45.5383 95.7563V83.4475H49.9258C50.8794 83.4475 51.6707 83.6118 52.2998 83.9403C52.9329 84.2689 53.4057 84.7236 53.7182 85.3046C54.0307 85.8816 54.187 86.5487 54.187 87.306C54.187 88.0593 54.0287 88.7224 53.7122 89.2954C53.3997 89.8644 52.9269 90.3071 52.2938 90.6236C51.6647 90.9402 50.8734 91.0984 49.9198 91.0984H46.5961V89.4997H49.7515C50.3525 89.4997 50.8413 89.4136 51.218 89.2413C51.5986 89.069 51.8771 88.8186 52.0534 88.49C52.2297 88.1615 52.3178 87.7668 52.3178 87.306C52.3178 86.8412 52.2277 86.4385 52.0474 86.098C51.8711 85.7574 51.5926 85.4969 51.212 85.3166C50.8353 85.1323 50.3405 85.0402 49.7274 85.0402H47.3955V95.7563H45.5383ZM51.6146 90.2029L54.6558 95.7563H52.5402L49.5592 90.2029H51.6146ZM56.9789 95.7563H55.0075L59.437 83.4475H61.5827L66.0122 95.7563H64.0408L60.5609 85.6833H60.4648L56.9789 95.7563ZM57.3094 90.9362H63.7043V92.4988H57.3094V90.9362ZM71.2667 95.7563H67.282V83.4475H71.3929C72.599 83.4475 73.6347 83.6939 74.5002 84.1867C75.3657 84.6756 76.0288 85.3787 76.4896 86.2963C76.9544 87.2099 77.1867 88.3057 77.1867 89.5839C77.1867 90.8661 76.9524 91.9679 76.4836 92.8895C76.0188 93.811 75.3456 94.5203 74.4641 95.0171C73.5826 95.5099 72.5168 95.7563 71.2667 95.7563ZM69.1391 94.1336H71.1645C72.1021 94.1336 72.8814 93.9573 73.5025 93.6047C74.1236 93.2481 74.5883 92.7332 74.8969 92.0601C75.2054 91.3829 75.3597 90.5575 75.3597 89.5839C75.3597 88.6182 75.2054 87.7989 74.8969 87.1257C74.5923 86.4526 74.1376 85.9417 73.5326 85.5931C72.9275 85.2445 72.1763 85.0702 71.2787 85.0702H69.1391V94.1336ZM78.9884 95.7563V83.4475H86.7055V85.0462H80.8456V88.7965H86.3028V90.3892H80.8456V94.1576H86.7776V95.7563H78.9884Z" fill="black"/>
</svg>
