<svg width="375" height="812" viewBox="0 0 375 812" fill="none" xmlns="http://www.w3.org/2000/svg">
<g clip-path="url(#clip0_1_1436)">
<rect width="375" height="812" fill="white"/>
<g opacity="0.05">
<path d="M-10.026 -19L93.6151 76.291H145.436L222.087 -19L291.181 25.7753L394.822 -4.07491L384.026 161.249H453.12L473.632 268.021L426.13 386.274L522.214 429.901L560 731.847H355.957L328.967 805.324H179.983L110.889 753.66L-47.8119 830.582L-99.6324 775.474V631.964L-151.453 555.042L-99.6324 429.901V304.76L-186 268.021V76.291L-10.026 -19Z" stroke="#1EBAE2" stroke-width="2"/>
<path d="M148.008 370.531L166.751 360.334H191.473L208.721 379.622L213.205 403.703L223.439 408.371L227.463 440.683H205.731L179.629 443.017L162.726 451.248L157.207 445.351V429.994V394.98L148.008 391.048V370.531Z" stroke="#1EBAE2" stroke-width="2"/>
<path d="M2.85126 10.1792L99.2408 97.7479H148.977L220.395 10.5289L284.838 52.6018L380.679 25.9739L370.886 179.507L435.452 179.866L454.542 279.667L410.848 390.066L498.705 430.338L532.749 709.057L343.397 709.147L317.479 777.062L178.655 777.695L114.664 729.779L-32.0412 800.556L-79.8756 749.097V616.035L-127.71 542.337L-80.2294 426.671L-80.5832 311.005L-160.307 276.303V98.5323L2.85126 10.1792Z" stroke="#1EBAE2" stroke-width="2"/>
<path d="M15.7285 39.3594L104.867 119.206H152.518L218.704 40.0587L278.495 79.4292L366.536 56.0237L357.746 197.766L417.784 198.484L435.451 291.315L395.566 393.86L475.196 430.776L505.497 686.268L330.837 686.448L305.992 748.801L177.328 750.067L118.439 705.898L-16.2706 770.532L-60.1188 722.721V600.107L-103.967 529.633L-60.8264 423.442L-61.534 317.251L-134.614 284.586V120.775L15.7285 39.3594Z" stroke="#1EBAE2" stroke-width="2"/>
<path d="M28.6058 68.5386L110.492 140.663H156.059L217.012 69.5876L272.152 106.256L352.393 86.0725L344.606 216.023L400.117 217.101L416.36 302.961L380.284 397.653L451.687 431.212L478.245 663.479L318.277 663.748L294.504 720.538L176 722.438L122.214 682.016L-0.499992 740.506L-40.362 696.343V584.179L-80.2239 516.928L-41.4234 420.212L-42.4848 323.496L-108.921 292.868V143.016L28.6058 68.5386Z" stroke="#1EBAE2" stroke-width="2"/>
<path d="M41.4831 97.7178L116.118 162.12H159.601L215.32 99.1165L265.808 133.082L338.25 116.121L331.466 234.281L382.449 235.718L397.269 314.608L365.002 401.446L428.178 431.649L450.994 640.689L305.717 641.048L283.017 692.276L174.673 694.809L125.989 658.134L15.2706 710.48L-20.6051 669.966V568.25L-56.4809 504.223L-22.0204 416.982L-23.4356 329.741L-83.2285 301.15V165.257L41.4831 97.7178Z" stroke="#1EBAE2" stroke-width="2"/>
<path d="M54.3609 126.898L121.744 183.578H163.142L213.629 128.646L259.466 159.91L324.107 146.171L318.326 252.54L364.781 254.335L378.178 326.255L349.72 405.24L404.669 432.087L423.743 617.9L293.158 618.349L271.529 664.015L173.346 667.181L129.765 634.253L31.0417 680.456L-0.847832 643.59V552.322L-32.7374 491.519L-2.61685 413.753L-4.38588 335.987L-57.5352 309.433V187.5L54.3609 126.898Z" stroke="#1EBAE2" stroke-width="2"/>
<path d="M67.2382 156.077L127.37 205.034H166.684L211.938 158.175L253.123 186.736L309.964 176.22L305.186 270.798L347.114 272.952L359.088 337.901L334.438 409.032L381.16 432.524L396.492 595.11L280.598 595.649L260.042 635.752L172.018 639.551L133.54 610.372L46.8124 650.43L18.909 617.213V536.394L-8.99438 478.814L16.7862 410.523L14.6633 342.232L-31.8423 317.715V209.741L67.2382 156.077Z" stroke="#1EBAE2" stroke-width="2"/>
<path d="M80.1155 185.257L132.996 226.492H170.225L210.246 187.704L246.779 213.563L295.821 206.269L292.046 289.056L329.446 291.569L339.997 349.548L319.156 412.825L357.651 432.961L369.24 572.321L268.039 572.949L248.554 607.49L170.691 611.923L137.315 586.49L62.583 620.405L38.6658 590.836V520.465L14.7486 466.109L36.1892 407.293L33.7125 348.477L-6.14941 325.997V231.982L80.1155 185.257Z" stroke="#1EBAE2" stroke-width="2"/>
<path d="M92.9923 214.436L138.621 247.949H173.766L208.554 217.233L240.436 240.389L281.678 236.318L278.905 307.313L311.778 310.186L320.905 361.194L303.873 416.618L334.142 433.398L341.988 549.531L255.478 550.249L237.066 579.228L169.363 584.293L141.09 562.608L78.3531 590.379L58.4221 564.458V504.537L38.4912 453.404L55.5917 404.063L52.7613 354.722L19.543 334.279V254.224L92.9923 214.436Z" stroke="#1EBAE2" stroke-width="2"/>
<path d="M105.87 243.616L144.247 269.406H177.308L206.863 246.763L234.093 267.217L267.535 266.367L265.766 325.572L294.11 328.804L301.815 372.841L288.592 420.412L310.633 433.835L314.737 526.742L242.919 527.55L225.579 550.966L168.036 556.665L144.866 538.727L94.1242 560.354L78.1794 538.082V488.609L62.2347 440.7L74.9952 400.834L71.811 360.968L45.2363 342.562V276.466L105.87 243.616Z" stroke="#1EBAE2" stroke-width="2"/>
<path d="M118.747 272.795L149.873 290.863H180.849L205.171 276.292L227.75 294.043L253.392 296.416L252.625 343.83L276.442 347.421L282.724 384.488L273.31 424.205L287.124 434.273L287.485 503.952L230.359 504.85L214.092 522.704L166.708 529.036L148.641 514.846L109.895 530.329L97.9363 511.705V472.68L85.9777 427.995L94.3982 397.604L90.8602 367.213L70.9292 350.844V298.707L118.747 272.795Z" stroke="#1EBAE2" stroke-width="2"/>
<path d="M131.625 301.974L155.499 312.32H184.39L203.48 305.821L221.407 320.87L239.249 326.465L239.485 362.087L258.775 366.038L263.633 396.135L258.028 427.998L263.615 434.709L260.234 481.163L217.8 482.15L202.604 494.442L165.381 501.407L152.416 490.964L125.665 500.303L117.693 485.328V456.752L109.721 415.29L113.801 394.374L109.909 373.458L96.6221 359.126V320.949L131.625 301.974Z" stroke="#1EBAE2" stroke-width="2"/>
<path d="M144.502 331.154L161.125 333.778H187.931L201.788 335.35L215.064 347.697L225.106 356.515L226.345 380.346L241.107 384.655L244.542 407.782L242.746 431.791L240.106 435.147L232.982 458.374L205.24 459.451L191.117 466.18L164.054 473.779L156.191 467.083L141.436 470.278L137.45 458.951V440.824L133.464 402.586L133.204 391.145L128.959 379.704L122.315 367.409V343.191L144.502 331.154Z" stroke="#1EBAE2" stroke-width="2"/>
</g>
<circle cx="188" cy="393.686" r="35.9368" fill="black" stroke="black" stroke-width="3.49777"/>
<path d="M168.79 371.684C171.476 361.754 181.982 359.366 186.9 359.413C191.255 357.292 200.675 360.673 204.84 362.629C215.717 366.217 221.765 382.497 223.429 390.188C227.198 394.746 219.019 410.234 214.459 417.408C215.474 409.059 210.087 403.041 207.266 401.076C202.911 397.556 190.915 394.494 185.461 393.404C179.955 392.388 176.115 389.934 174.883 388.834C167.188 382.809 167.615 374.89 168.79 371.684Z" fill="#1DB8DF"/>
<path d="M166.026 392.98C159.623 386.239 160.968 375.191 162.782 370.33L156.83 374.674C150.692 382.527 152.524 398.293 154.207 405.194C155.516 415.71 169.834 424.601 176.83 427.733L178.691 426.802C185.207 414.588 176.811 404.113 172.288 399.835L166.026 392.98Z" fill="#C1D649"/>
<circle cx="188" cy="393.686" r="35.9368" stroke="black" stroke-width="3.49777"/>
<circle cx="193.078" cy="382.008" r="9.08292" fill="black"/>
<path d="M145.352 451.756V439.447H152.985V441.046H147.209V444.797H152.438V446.389H147.209V451.756H145.352ZM154.264 451.756H152.293L156.722 439.447H158.868L163.297 451.756H161.326L157.846 441.683H157.75L154.264 451.756ZM154.595 446.936H160.989V448.499H154.595V446.936ZM166.424 439.447V451.756H164.567V439.447H166.424ZM168.621 451.756V439.447H173.009C173.962 439.447 174.754 439.612 175.383 439.94C176.016 440.269 176.488 440.724 176.801 441.305C177.114 441.882 177.27 442.549 177.27 443.306C177.27 444.059 177.112 444.722 176.795 445.295C176.482 445.864 176.01 446.307 175.377 446.624C174.748 446.94 173.956 447.098 173.003 447.098H169.679V445.5H172.834C173.435 445.5 173.924 445.414 174.301 445.241C174.681 445.069 174.96 444.819 175.136 444.49C175.312 444.161 175.401 443.767 175.401 443.306C175.401 442.841 175.31 442.439 175.13 442.098C174.954 441.757 174.675 441.497 174.295 441.317C173.918 441.132 173.423 441.04 172.81 441.04H170.478V451.756H168.621ZM174.697 446.203L177.739 451.756H175.623L172.642 446.203H174.697ZM178.415 441.046V439.447H187.941V441.046H184.1V451.756H182.249V441.046H178.415ZM189.538 451.756V439.447H193.926C194.879 439.447 195.671 439.612 196.3 439.94C196.933 440.269 197.406 440.724 197.718 441.305C198.031 441.882 198.187 442.549 198.187 443.306C198.187 444.059 198.029 444.722 197.712 445.295C197.4 445.864 196.927 446.307 196.294 446.624C195.665 446.94 194.873 447.098 193.92 447.098H190.596V445.5H193.751C194.352 445.5 194.841 445.414 195.218 445.241C195.599 445.069 195.877 444.819 196.053 444.49C196.23 444.161 196.318 443.767 196.318 443.306C196.318 442.841 196.228 442.439 196.047 442.098C195.871 441.757 195.593 441.497 195.212 441.317C194.835 441.132 194.34 441.04 193.727 441.04H191.395V451.756H189.538ZM195.615 446.203L198.656 451.756H196.54L193.559 446.203H195.615ZM200.979 451.756H199.008L203.437 439.447H205.583L210.012 451.756H208.041L204.561 441.683H204.465L200.979 451.756ZM201.309 446.936H207.704V448.499H201.309V446.936ZM215.267 451.756H211.282V439.447H215.393C216.599 439.447 217.635 439.694 218.5 440.187C219.366 440.676 220.029 441.379 220.49 442.296C220.954 443.21 221.187 444.306 221.187 445.584C221.187 446.866 220.952 447.968 220.484 448.889C220.019 449.811 219.346 450.52 218.464 451.017C217.583 451.51 216.517 451.756 215.267 451.756ZM213.139 450.134H215.165C216.102 450.134 216.881 449.957 217.503 449.605C218.124 449.248 218.588 448.733 218.897 448.06C219.205 447.383 219.36 446.558 219.36 445.584C219.36 444.618 219.205 443.799 218.897 443.126C218.592 442.453 218.138 441.942 217.533 441.593C216.928 441.245 216.176 441.07 215.279 441.07H213.139V450.134ZM222.988 451.756V439.447H230.706V441.046H224.846V444.797H230.303V446.389H224.846V450.158H230.778V451.756H222.988Z" fill="black"/>
<path d="M32.944 29C32.848 29 32.768 28.968 32.704 28.904C32.64 28.8293 32.608 28.744 32.608 28.648C32.608 28.5947 32.6133 28.552 32.624 28.52C32.6453 28.488 32.6613 28.4613 32.672 28.44L35.024 25.192C34.8107 25.2453 34.5867 25.2667 34.352 25.256C33.8187 25.2453 33.3173 25.144 32.848 24.952C32.3893 24.7493 31.984 24.4827 31.632 24.152C31.2907 23.8107 31.0187 23.4213 30.816 22.984C30.624 22.536 30.528 22.0507 30.528 21.528C30.528 21.048 30.6187 20.5787 30.8 20.12C30.9813 19.6507 31.248 19.2293 31.6 18.856C31.9627 18.4827 32.4107 18.1893 32.944 17.976C33.488 17.752 34.1227 17.64 34.848 17.64C35.5627 17.64 36.192 17.7413 36.736 17.944C37.28 18.1467 37.7333 18.4293 38.096 18.792C38.4693 19.144 38.7467 19.5493 38.928 20.008C39.12 20.4667 39.216 20.952 39.216 21.464C39.216 21.9227 39.1413 22.3493 38.992 22.744C38.8427 23.1387 38.656 23.5013 38.432 23.832C38.2187 24.152 38.0053 24.4667 37.792 24.776L34.976 28.68C34.9333 28.7333 34.8693 28.8027 34.784 28.888C34.7093 28.9627 34.592 29 34.432 29H32.944ZM34.864 23.56C35.248 23.56 35.5947 23.48 35.904 23.32C36.224 23.1493 36.4747 22.9147 36.656 22.616C36.848 22.3067 36.944 21.944 36.944 21.528C36.944 21.1013 36.848 20.7387 36.656 20.44C36.4747 20.1307 36.224 19.896 35.904 19.736C35.584 19.5653 35.2373 19.48 34.864 19.48C34.48 19.48 34.128 19.5653 33.808 19.736C33.4987 19.896 33.248 20.1307 33.056 20.44C32.8747 20.7387 32.784 21.1013 32.784 21.528C32.784 21.944 32.8747 22.3067 33.056 22.616C33.248 22.9147 33.4987 23.1493 33.808 23.32C34.128 23.48 34.48 23.56 34.864 23.56ZM41.267 23.4C41.1603 23.4 41.0697 23.3627 40.995 23.288C40.9203 23.2133 40.883 23.1227 40.883 23.016V21.496C40.883 21.3787 40.9203 21.2827 40.995 21.208C41.0697 21.1333 41.1603 21.096 41.267 21.096H42.851C42.9683 21.096 43.0643 21.1333 43.139 21.208C43.2137 21.2827 43.251 21.3787 43.251 21.496V23.016C43.251 23.1227 43.2137 23.2133 43.139 23.288C43.0643 23.3627 42.9683 23.4 42.851 23.4H41.267ZM41.267 29C41.1603 29 41.0697 28.9627 40.995 28.888C40.9203 28.8133 40.883 28.7227 40.883 28.616V27.096C40.883 26.9787 40.9203 26.8827 40.995 26.808C41.0697 26.7333 41.1603 26.696 41.267 26.696H42.851C42.9683 26.696 43.0643 26.7333 43.139 26.808C43.2137 26.8827 43.251 26.9787 43.251 27.096V28.616C43.251 28.7227 43.2137 28.8133 43.139 28.888C43.0643 28.9627 42.9683 29 42.851 29H41.267ZM50.5856 29C50.479 29 50.3883 28.9627 50.3136 28.888C50.239 28.8133 50.2016 28.7227 50.2016 28.616V26.568H45.1296C45.0123 26.568 44.9163 26.5307 44.8416 26.456C44.7776 26.3813 44.7456 26.2907 44.7456 26.184V25.096C44.7456 25.032 44.7563 24.9573 44.7776 24.872C44.8096 24.776 44.8576 24.6907 44.9216 24.616L49.6416 18.072C49.7803 17.8907 49.9776 17.8 50.2336 17.8H51.9776C52.0843 17.8 52.175 17.8373 52.2496 17.912C52.3243 17.9867 52.3616 18.0773 52.3616 18.184V24.68H53.7856C53.9136 24.68 54.0096 24.7173 54.0736 24.792C54.1483 24.856 54.1856 24.9467 54.1856 25.064V26.184C54.1856 26.2907 54.1483 26.3813 54.0736 26.456C53.999 26.5307 53.9083 26.568 53.8016 26.568H52.3616V28.616C52.3616 28.7227 52.3243 28.8133 52.2496 28.888C52.175 28.9627 52.0843 29 51.9776 29H50.5856ZM46.9696 24.744H50.2496V20.12L46.9696 24.744ZM58.7758 29C58.6584 29 58.5624 28.9627 58.4878 28.888C58.4238 28.8133 58.3918 28.7227 58.3918 28.616V20.328L55.9598 22.2C55.8638 22.264 55.7678 22.2907 55.6718 22.28C55.5758 22.2587 55.4904 22.2 55.4158 22.104L54.7438 21.24C54.6798 21.144 54.6531 21.0427 54.6638 20.936C54.6851 20.8293 54.7438 20.744 54.8398 20.68L58.4238 17.912C58.4878 17.8587 58.5518 17.8267 58.6158 17.816C58.6798 17.8053 58.7491 17.8 58.8238 17.8H60.2318C60.3384 17.8 60.4291 17.8373 60.5038 17.912C60.5784 17.9867 60.6158 18.0773 60.6158 18.184V28.616C60.6158 28.7227 60.5784 28.8133 60.5038 28.888C60.4291 28.9627 60.3384 29 60.2318 29H58.7758Z" fill="black"/>
<path fill-rule="evenodd" clip-rule="evenodd" d="M305 20.5H304C303.448 20.5 303 20.9197 303 21.4375V29.5625C303 30.0803 303.448 30.5 304 30.5H305C305.552 30.5 306 30.0803 306 29.5625V21.4375C306 20.9197 305.552 20.5 305 20.5ZM299 22.5H300C300.552 22.5 301 22.9298 301 23.46V29.54C301 30.0702 300.552 30.5 300 30.5H299C298.448 30.5 298 30.0702 298 29.54V23.46C298 22.9298 298.448 22.5 299 22.5ZM295 24.5H294C293.448 24.5 293 24.9477 293 25.5V29.5C293 30.0523 293.448 30.5 294 30.5H295C295.552 30.5 296 30.0523 296 29.5V25.5C296 24.9477 295.552 24.5 295 24.5ZM290 26.5H289C288.448 26.5 288 26.9477 288 27.5V29.5C288 30.0523 288.448 30.5 289 30.5H290C290.552 30.5 291 30.0523 291 29.5V27.5C291 26.9477 290.552 26.5 290 26.5Z" fill="black"/>
<path fill-rule="evenodd" clip-rule="evenodd" d="M318.637 21.2773C320.852 21.2774 322.984 22.1289 324.59 23.6557C324.711 23.7735 324.904 23.772 325.023 23.6523L326.179 22.4857C326.239 22.4249 326.273 22.3427 326.272 22.2571C326.272 22.1715 326.237 22.0897 326.176 22.0297C321.961 17.9901 315.311 17.9901 311.096 22.0297C311.035 22.0896 311.001 22.1715 311 22.257C310.999 22.3426 311.033 22.4249 311.093 22.4857L312.25 23.6523C312.369 23.7722 312.562 23.7737 312.683 23.6557C314.289 22.1288 316.42 21.2773 318.637 21.2773ZM318.637 25.0729C319.854 25.0728 321.028 25.5254 321.931 26.3426C322.053 26.4585 322.245 26.456 322.364 26.3369L323.519 25.1702C323.579 25.109 323.613 25.026 323.612 24.9398C323.611 24.8535 323.576 24.7712 323.514 24.7112C320.766 22.1548 316.51 22.1548 313.762 24.7112C313.699 24.7712 313.664 24.8535 313.663 24.9398C313.662 25.0261 313.696 25.1091 313.757 25.1702L314.912 26.3369C315.031 26.456 315.223 26.4585 315.345 26.3426C316.247 25.5259 317.42 25.0734 318.637 25.0729ZM320.95 27.6267C320.951 27.7132 320.917 27.7966 320.856 27.8572L318.858 29.8729C318.8 29.9321 318.72 29.9655 318.637 29.9655C318.553 29.9655 318.473 29.9321 318.415 29.8729L316.417 27.8572C316.356 27.7966 316.322 27.7131 316.323 27.6266C316.325 27.5401 316.363 27.4582 316.427 27.4002C317.703 26.3213 319.571 26.3213 320.846 27.4002C320.91 27.4583 320.948 27.5402 320.95 27.6267Z" fill="black"/>
<path opacity="0.35" d="M332.5 20.6667C332.5 19.4701 333.47 18.5 334.667 18.5H354.333C355.53 18.5 356.5 19.47 356.5 20.6667V28.3333C356.5 29.53 355.53 30.5 354.333 30.5H334.667C333.47 30.5 332.5 29.53 332.5 28.3333V20.6667Z" stroke="black"/>
<path opacity="0.4" d="M357.65 23V27C358.455 26.6612 358.978 25.8731 358.978 25C358.978 24.1269 358.455 23.3388 357.65 23Z" fill="black"/>
<path d="M334.3 21.6666C334.3 20.9302 334.897 20.3333 335.633 20.3333H353.166C353.903 20.3333 354.5 20.9302 354.5 21.6666V27.3299C354.5 28.0663 353.903 28.6633 353.166 28.6633H335.633C334.897 28.6633 334.3 28.0663 334.3 27.3299V21.6666Z" fill="black"/>
</g>
<defs>
<clipPath id="clip0_1_1436">
<rect width="375" height="812" fill="white"/>
</clipPath>
</defs>
</svg>
